<svg width="118" height="28" viewBox="0 0 118 28" fill="none" xmlns="http://www.w3.org/2000/svg">
<path d="M35.6113 20.1767H39.1992L41.0048 13.3933C41.1668 12.8203 41.2825 12.2016 41.3751 11.6057C41.4677 12.2016 41.6066 12.8203 41.7918 13.3933L43.7594 20.1767H47.139L50.8889 8.25985H47.4862L45.8195 15.0204C45.6806 15.5933 45.5417 16.235 45.4492 16.8308C45.3566 16.235 45.2177 15.5704 45.0556 14.9975L43.1807 8.25985H39.5927L37.8335 14.9975C37.6715 15.5704 37.5326 16.235 37.44 16.8308C37.3474 16.235 37.2085 15.5933 37.0696 15.0204L35.5187 8.25985H31.8613L35.6113 20.1767Z" fill="#05668D"/>
<path d="M56.7555 20.4746C59.1397 20.4746 61.1536 19.4205 62.1258 17.9308L59.6953 16.1204C59.1397 17.0371 58.0981 17.7246 56.7555 17.7246C55.1814 17.7246 54.1166 16.7392 53.7694 15.3412H62.7739C62.8434 14.9516 62.8665 14.585 62.8665 14.2412C62.8665 10.8036 60.3665 7.96193 56.7555 7.96193C53.1444 7.96193 50.5287 10.8036 50.5287 14.2412C50.5287 17.6788 53.0287 20.4746 56.7555 20.4746ZM53.7694 13.0266C54.1166 11.6057 55.2277 10.6203 56.7092 10.6203C58.2369 10.6203 59.3712 11.6974 59.7184 13.0266H53.7694Z" fill="#05668D"/>
<path d="M72.2013 20.1767H76.3448L70.6504 13.8058L76.3216 8.25985H71.8772L67.3634 13.0724V3.44727H64.2384V20.1767H67.3634V14.5162L72.2013 20.1767Z" fill="#05668D"/>
<path d="M84.0673 20.4746C87.3775 20.4746 90.0163 17.7017 90.0163 14.2641C90.0163 10.8266 87.3775 8.00776 84.0673 8.00776C82.0071 8.00776 80.9192 8.83277 80.271 10.0932V3.44727H77.1461V20.1767H80.1785V18.2288C80.8266 19.5809 81.9146 20.4746 84.0673 20.4746ZM80.1785 14.2641C80.1785 12.4078 81.4979 10.8036 83.5581 10.8036C85.5488 10.8036 86.8914 12.3849 86.8914 14.2412C86.8914 16.0516 85.5488 17.6788 83.5581 17.6788C81.4979 17.6788 80.1785 16.1204 80.1785 14.2641Z" fill="#05668D"/>
<path d="M97.2461 20.4746C100.973 20.4746 103.658 17.6788 103.658 14.2412C103.658 10.8036 100.973 7.98484 97.2461 7.98484C93.5193 7.98484 90.8341 10.8036 90.8341 14.2412C90.8341 17.6788 93.5193 20.4746 97.2461 20.4746ZM93.9591 14.2412C93.9591 12.3849 95.2553 10.8036 97.2461 10.8036C99.2368 10.8036 100.533 12.3849 100.533 14.2412C100.533 16.0975 99.2368 17.6558 97.2461 17.6558C95.2553 17.6558 93.9591 16.0975 93.9591 14.2412Z" fill="#05668D"/>
<path d="M110.414 20.4746C112.567 20.4746 113.655 19.5809 114.303 18.2288V20.1767H117.335V3.44727H114.21V10.0932C113.562 8.83277 112.474 8.00776 110.414 8.00776C107.104 8.00776 104.465 10.8266 104.465 14.2641C104.465 17.7017 107.104 20.4746 110.414 20.4746ZM107.59 14.2412C107.59 12.3849 108.933 10.8036 110.923 10.8036C112.984 10.8036 114.303 12.4078 114.303 14.2641C114.303 16.1204 112.984 17.6788 110.923 17.6788C108.933 17.6788 107.59 16.0516 107.59 14.2412Z" fill="#05668D"/>
<path d="M2.44336 25.7854V2.85742H24.5284V14.7748L13.4859 25.7854V14.7748L2.44336 25.7854Z" fill="#F0F3BD"/>
<path fill-rule="evenodd" clip-rule="evenodd" d="M0.335938 2.85735C0.335938 1.69349 1.27943 0.75 2.44329 0.75H24.5283C25.6922 0.75 26.6356 1.69349 26.6356 2.85735V14.7747C26.6356 15.3347 26.4128 15.8716 26.0163 16.267L14.9738 27.2776C14.3706 27.879 13.4647 28.0582 12.6779 27.7317C11.8912 27.4051 11.3784 26.6371 11.3784 25.7853V19.8519L3.93125 27.2776C3.32807 27.879 2.42214 28.0582 1.63543 27.7317C0.848717 27.4051 0.335938 26.6371 0.335938 25.7853V2.85735ZM4.55063 4.9647V20.7081L11.9978 13.2824C12.601 12.681 13.5069 12.5018 14.2936 12.8284C15.0804 13.1549 15.5931 13.9229 15.5931 14.7747V20.7081L22.421 13.9V4.9647H4.55063Z" fill="#02C39A"/>
</svg>
